<mxfile host="app.diagrams.net" agent="Mozilla/5.0 (Windows NT 10.0; Win64; x64) AppleWebKit/537.36 (KHTML, like Gecko) Chrome/129.0.0.0 Safari/537.36" version="24.8.0" pages="2">
  <diagram id="o6pP701PcTdjMUEN1Jdi" name="Page-7">
    <mxGraphModel dx="2163" dy="1811" grid="1" gridSize="10" guides="1" tooltips="1" connect="1" arrows="1" fold="1" page="1" pageScale="1" pageWidth="850" pageHeight="1100" math="0" shadow="0">
      <root>
        <mxCell id="0" />
        <mxCell id="1" parent="0" />
        <mxCell id="Ae2gHTVc8_5ClM0TU5Tf-1" value="Vraboten" style="whiteSpace=wrap;html=1;align=center;strokeColor=#0F8B8D;fontColor=#143642;fillColor=#FAE5C7;fontStyle=1;labelBackgroundColor=none;" vertex="1" parent="1">
          <mxGeometry x="120" y="70" width="100" height="40" as="geometry" />
        </mxCell>
        <mxCell id="Ae2gHTVc8_5ClM0TU5Tf-2" value="datumVrabotuvanje" style="ellipse;whiteSpace=wrap;html=1;align=center;strokeColor=#0F8B8D;fontColor=#143642;fillColor=#FAE5C7;fontStyle=1;labelBackgroundColor=none;" vertex="1" parent="1">
          <mxGeometry y="20" width="110" height="40" as="geometry" />
        </mxCell>
        <mxCell id="Ae2gHTVc8_5ClM0TU5Tf-3" value="ime" style="ellipse;whiteSpace=wrap;html=1;align=center;strokeColor=#0F8B8D;fontColor=#143642;fillColor=#FAE5C7;fontStyle=1;labelBackgroundColor=none;" vertex="1" parent="1">
          <mxGeometry x="100" y="-10" width="100" height="40" as="geometry" />
        </mxCell>
        <mxCell id="Ae2gHTVc8_5ClM0TU5Tf-4" value="stepenObraz" style="ellipse;whiteSpace=wrap;html=1;align=center;strokeColor=#0F8B8D;fontColor=#143642;fillColor=#FAE5C7;fontStyle=1;labelBackgroundColor=none;" vertex="1" parent="1">
          <mxGeometry x="-70" y="60" width="100" height="40" as="geometry" />
        </mxCell>
        <mxCell id="Ae2gHTVc8_5ClM0TU5Tf-6" value="prezime" style="ellipse;whiteSpace=wrap;html=1;align=center;strokeColor=#0F8B8D;fontColor=#143642;fillColor=#FAE5C7;fontStyle=1;labelBackgroundColor=none;" vertex="1" parent="1">
          <mxGeometry x="240" y="-20" width="100" height="40" as="geometry" />
        </mxCell>
        <mxCell id="Ae2gHTVc8_5ClM0TU5Tf-8" value="embg" style="ellipse;whiteSpace=wrap;html=1;align=center;fontStyle=5;strokeColor=#0F8B8D;fontColor=#143642;fillColor=#FAE5C7;labelBackgroundColor=none;" vertex="1" parent="1">
          <mxGeometry x="310" y="30" width="100" height="40" as="geometry" />
        </mxCell>
        <mxCell id="Ae2gHTVc8_5ClM0TU5Tf-10" value="" style="endArrow=none;html=1;rounded=0;strokeColor=#A8201A;fontColor=default;fillColor=#FAE5C7;exitX=1;exitY=1;exitDx=0;exitDy=0;entryX=0;entryY=0.5;entryDx=0;entryDy=0;fontStyle=1;labelBackgroundColor=none;" edge="1" parent="1" source="Ae2gHTVc8_5ClM0TU5Tf-4" target="Ae2gHTVc8_5ClM0TU5Tf-1">
          <mxGeometry width="50" height="50" relative="1" as="geometry">
            <mxPoint x="400" y="120" as="sourcePoint" />
            <mxPoint x="450" y="70" as="targetPoint" />
          </mxGeometry>
        </mxCell>
        <mxCell id="Ae2gHTVc8_5ClM0TU5Tf-11" value="" style="endArrow=none;html=1;rounded=0;strokeColor=#A8201A;fontColor=default;fillColor=#FAE5C7;exitX=1;exitY=1;exitDx=0;exitDy=0;entryX=0;entryY=0;entryDx=0;entryDy=0;fontStyle=1;labelBackgroundColor=none;" edge="1" parent="1" source="Ae2gHTVc8_5ClM0TU5Tf-2" target="Ae2gHTVc8_5ClM0TU5Tf-1">
          <mxGeometry width="50" height="50" relative="1" as="geometry">
            <mxPoint x="25" y="104" as="sourcePoint" />
            <mxPoint x="130" y="100" as="targetPoint" />
          </mxGeometry>
        </mxCell>
        <mxCell id="Ae2gHTVc8_5ClM0TU5Tf-12" value="" style="endArrow=none;html=1;rounded=0;strokeColor=#A8201A;fontColor=default;fillColor=#FAE5C7;exitX=0.584;exitY=1.025;exitDx=0;exitDy=0;entryX=0.25;entryY=0;entryDx=0;entryDy=0;exitPerimeter=0;fontStyle=1;labelBackgroundColor=none;" edge="1" parent="1" source="Ae2gHTVc8_5ClM0TU5Tf-3" target="Ae2gHTVc8_5ClM0TU5Tf-1">
          <mxGeometry width="50" height="50" relative="1" as="geometry">
            <mxPoint x="104" y="64" as="sourcePoint" />
            <mxPoint x="130" y="80" as="targetPoint" />
          </mxGeometry>
        </mxCell>
        <mxCell id="Ae2gHTVc8_5ClM0TU5Tf-13" value="" style="endArrow=none;html=1;rounded=0;strokeColor=#A8201A;fontColor=default;fillColor=#FAE5C7;exitX=0;exitY=1;exitDx=0;exitDy=0;entryX=0.75;entryY=0;entryDx=0;entryDy=0;fontStyle=1;labelBackgroundColor=none;" edge="1" parent="1" source="Ae2gHTVc8_5ClM0TU5Tf-6" target="Ae2gHTVc8_5ClM0TU5Tf-1">
          <mxGeometry width="50" height="50" relative="1" as="geometry">
            <mxPoint x="168" y="41" as="sourcePoint" />
            <mxPoint x="155" y="80" as="targetPoint" />
          </mxGeometry>
        </mxCell>
        <mxCell id="Ae2gHTVc8_5ClM0TU5Tf-14" value="" style="endArrow=none;html=1;rounded=0;strokeColor=#A8201A;fontColor=default;fillColor=#FAE5C7;exitX=0;exitY=0.5;exitDx=0;exitDy=0;entryX=1;entryY=0.25;entryDx=0;entryDy=0;entryPerimeter=0;fontStyle=1;labelBackgroundColor=none;" edge="1" parent="1" source="Ae2gHTVc8_5ClM0TU5Tf-8" target="Ae2gHTVc8_5ClM0TU5Tf-1">
          <mxGeometry width="50" height="50" relative="1" as="geometry">
            <mxPoint x="265" y="24" as="sourcePoint" />
            <mxPoint x="205" y="80" as="targetPoint" />
          </mxGeometry>
        </mxCell>
        <mxCell id="Ae2gHTVc8_5ClM0TU5Tf-15" value="Inzeneri" style="whiteSpace=wrap;html=1;align=center;strokeColor=#0F8B8D;fontColor=#143642;fillColor=#FAE5C7;fontStyle=1;labelBackgroundColor=none;" vertex="1" parent="1">
          <mxGeometry x="10" y="250" width="100" height="40" as="geometry" />
        </mxCell>
        <mxCell id="Ae2gHTVc8_5ClM0TU5Tf-16" value="Komercijalist" style="whiteSpace=wrap;html=1;align=center;strokeColor=#0F8B8D;fontColor=#143642;fillColor=#FAE5C7;fontStyle=1;labelBackgroundColor=none;" vertex="1" parent="1">
          <mxGeometry x="520" y="270" width="100" height="40" as="geometry" />
        </mxCell>
        <mxCell id="Ae2gHTVc8_5ClM0TU5Tf-17" value="d" style="ellipse;whiteSpace=wrap;html=1;aspect=fixed;strokeColor=#0F8B8D;fontColor=#143642;fillColor=#FAE5C7;fontStyle=1;labelBackgroundColor=none;" vertex="1" parent="1">
          <mxGeometry x="150" y="160" width="40" height="40" as="geometry" />
        </mxCell>
        <mxCell id="Ae2gHTVc8_5ClM0TU5Tf-18" value="" style="endArrow=none;html=1;rounded=0;strokeColor=#A8201A;fontColor=default;fillColor=#FAE5C7;entryX=0.5;entryY=1;entryDx=0;entryDy=0;fontStyle=1;labelBackgroundColor=none;shape=link;" edge="1" parent="1" source="Ae2gHTVc8_5ClM0TU5Tf-17" target="Ae2gHTVc8_5ClM0TU5Tf-1">
          <mxGeometry width="50" height="50" relative="1" as="geometry">
            <mxPoint x="400" y="220" as="sourcePoint" />
            <mxPoint x="450" y="170" as="targetPoint" />
          </mxGeometry>
        </mxCell>
        <mxCell id="Ae2gHTVc8_5ClM0TU5Tf-19" value="" style="endArrow=none;html=1;rounded=0;strokeColor=#A8201A;fontColor=default;fillColor=#FAE5C7;entryX=0.5;entryY=0;entryDx=0;entryDy=0;exitX=0;exitY=1;exitDx=0;exitDy=0;fontStyle=1;labelBackgroundColor=none;" edge="1" parent="1" source="Ae2gHTVc8_5ClM0TU5Tf-17" target="Ae2gHTVc8_5ClM0TU5Tf-15">
          <mxGeometry width="50" height="50" relative="1" as="geometry">
            <mxPoint x="180" y="170" as="sourcePoint" />
            <mxPoint x="180" y="120" as="targetPoint" />
          </mxGeometry>
        </mxCell>
        <mxCell id="Ae2gHTVc8_5ClM0TU5Tf-20" value="" style="endArrow=none;html=1;rounded=0;strokeColor=#A8201A;fontColor=default;fillColor=#FAE5C7;entryX=0.424;entryY=0.015;entryDx=0;entryDy=0;exitX=1;exitY=1;exitDx=0;exitDy=0;entryPerimeter=0;fontStyle=1;labelBackgroundColor=none;" edge="1" parent="1" source="Ae2gHTVc8_5ClM0TU5Tf-17" target="Ae2gHTVc8_5ClM0TU5Tf-16">
          <mxGeometry width="50" height="50" relative="1" as="geometry">
            <mxPoint x="166" y="204" as="sourcePoint" />
            <mxPoint x="70" y="250" as="targetPoint" />
          </mxGeometry>
        </mxCell>
        <mxCell id="Ae2gHTVc8_5ClM0TU5Tf-21" value="" style="shape=requiredInterface;html=1;verticalLabelPosition=bottom;sketch=0;strokeColor=#0F8B8D;fontColor=#143642;fillColor=#FAE5C7;rotation=-210;fontStyle=1;labelBackgroundColor=none;" vertex="1" parent="1">
          <mxGeometry x="100" y="200" width="40" height="30" as="geometry" />
        </mxCell>
        <mxCell id="Ae2gHTVc8_5ClM0TU5Tf-22" value="" style="shape=requiredInterface;html=1;verticalLabelPosition=bottom;sketch=0;strokeColor=#0F8B8D;fontColor=#143642;fillColor=#FAE5C7;rotation=34;fontStyle=1;labelBackgroundColor=none;" vertex="1" parent="1">
          <mxGeometry x="240" y="190" width="40" height="30" as="geometry" />
        </mxCell>
        <mxCell id="Ae2gHTVc8_5ClM0TU5Tf-26" value="stranski jazici" style="ellipse;shape=doubleEllipse;margin=3;whiteSpace=wrap;html=1;align=center;strokeColor=#0F8B8D;fontColor=#143642;fillColor=#FAE5C7;fontStyle=1;labelBackgroundColor=none;" vertex="1" parent="1">
          <mxGeometry x="590" y="210" width="100" height="40" as="geometry" />
        </mxCell>
        <mxCell id="Ae2gHTVc8_5ClM0TU5Tf-27" value="kursevi" style="ellipse;shape=doubleEllipse;margin=3;whiteSpace=wrap;html=1;align=center;strokeColor=#0F8B8D;fontColor=#143642;fillColor=#FAE5C7;fontStyle=1;labelBackgroundColor=none;" vertex="1" parent="1">
          <mxGeometry x="-60" y="180" width="100" height="40" as="geometry" />
        </mxCell>
        <mxCell id="Ae2gHTVc8_5ClM0TU5Tf-28" value="" style="endArrow=none;html=1;rounded=0;strokeColor=#A8201A;fontColor=default;fillColor=#FAE5C7;exitX=0.5;exitY=1;exitDx=0;exitDy=0;fontStyle=1;labelBackgroundColor=none;" edge="1" parent="1" source="Ae2gHTVc8_5ClM0TU5Tf-27" target="Ae2gHTVc8_5ClM0TU5Tf-15">
          <mxGeometry width="50" height="50" relative="1" as="geometry">
            <mxPoint x="400" y="220" as="sourcePoint" />
            <mxPoint x="450" y="170" as="targetPoint" />
          </mxGeometry>
        </mxCell>
        <mxCell id="Ae2gHTVc8_5ClM0TU5Tf-29" value="" style="endArrow=none;html=1;rounded=0;strokeColor=#A8201A;fontColor=default;fillColor=#FAE5C7;exitX=0;exitY=1;exitDx=0;exitDy=0;entryX=0.75;entryY=0;entryDx=0;entryDy=0;fontStyle=1;labelBackgroundColor=none;" edge="1" parent="1" source="Ae2gHTVc8_5ClM0TU5Tf-26" target="Ae2gHTVc8_5ClM0TU5Tf-16">
          <mxGeometry width="50" height="50" relative="1" as="geometry">
            <mxPoint y="230" as="sourcePoint" />
            <mxPoint x="42" y="260" as="targetPoint" />
          </mxGeometry>
        </mxCell>
        <mxCell id="Ae2gHTVc8_5ClM0TU5Tf-30" value="Menadzer" style="whiteSpace=wrap;html=1;align=center;strokeColor=#0F8B8D;fontColor=#143642;fillColor=#FAE5C7;fontStyle=1;labelBackgroundColor=none;" vertex="1" parent="1">
          <mxGeometry x="150" y="410" width="100" height="40" as="geometry" />
        </mxCell>
        <mxCell id="Ae2gHTVc8_5ClM0TU5Tf-31" value="" style="endArrow=none;html=1;rounded=0;strokeColor=#A8201A;fontColor=default;fillColor=#FAE5C7;exitX=0.5;exitY=1;exitDx=0;exitDy=0;entryX=0.25;entryY=0;entryDx=0;entryDy=0;fontStyle=1;labelBackgroundColor=none;" edge="1" parent="1" source="Ae2gHTVc8_5ClM0TU5Tf-15" target="Ae2gHTVc8_5ClM0TU5Tf-30">
          <mxGeometry width="50" height="50" relative="1" as="geometry">
            <mxPoint x="400" y="320" as="sourcePoint" />
            <mxPoint x="450" y="270" as="targetPoint" />
          </mxGeometry>
        </mxCell>
        <mxCell id="Ae2gHTVc8_5ClM0TU5Tf-32" value="" style="endArrow=none;html=1;rounded=0;strokeColor=#A8201A;fontColor=default;fillColor=#FAE5C7;exitX=0.44;exitY=0.945;exitDx=0;exitDy=0;entryX=0.75;entryY=0;entryDx=0;entryDy=0;exitPerimeter=0;fontStyle=1;labelBackgroundColor=none;" edge="1" parent="1" source="Ae2gHTVc8_5ClM0TU5Tf-16" target="Ae2gHTVc8_5ClM0TU5Tf-30">
          <mxGeometry width="50" height="50" relative="1" as="geometry">
            <mxPoint x="70" y="300" as="sourcePoint" />
            <mxPoint x="155" y="420" as="targetPoint" />
          </mxGeometry>
        </mxCell>
        <mxCell id="Ae2gHTVc8_5ClM0TU5Tf-33" value="" style="shape=requiredInterface;html=1;verticalLabelPosition=bottom;sketch=0;strokeColor=#0F8B8D;fontColor=#143642;fillColor=#FAE5C7;rotation=-195;fontStyle=1;labelBackgroundColor=none;" vertex="1" parent="1">
          <mxGeometry x="370" y="340" width="42.78" height="45" as="geometry" />
        </mxCell>
        <mxCell id="Ae2gHTVc8_5ClM0TU5Tf-34" value="" style="shape=requiredInterface;html=1;verticalLabelPosition=bottom;sketch=0;strokeColor=#0F8B8D;fontColor=#143642;fillColor=#FAE5C7;rotation=55;fontStyle=1;labelBackgroundColor=none;" vertex="1" parent="1">
          <mxGeometry x="110" y="340" width="40" height="30" as="geometry" />
        </mxCell>
        <mxCell id="Ae2gHTVc8_5ClM0TU5Tf-36" value="odgovoren" style="shape=rhombus;perimeter=rhombusPerimeter;whiteSpace=wrap;html=1;align=center;strokeColor=#0F8B8D;fontColor=#143642;fillColor=#FAE5C7;fontStyle=1;labelBackgroundColor=none;" vertex="1" parent="1">
          <mxGeometry x="630" y="50" width="120" height="60" as="geometry" />
        </mxCell>
        <mxCell id="Ae2gHTVc8_5ClM0TU5Tf-37" value="" style="endArrow=none;html=1;rounded=0;strokeColor=#A8201A;fontColor=default;fillColor=#FAE5C7;exitX=1;exitY=0.75;exitDx=0;exitDy=0;entryX=0;entryY=0;entryDx=0;entryDy=0;fontStyle=1;labelBackgroundColor=none;" edge="1" parent="1" source="Ae2gHTVc8_5ClM0TU5Tf-1" target="Ae2gHTVc8_5ClM0TU5Tf-36">
          <mxGeometry width="50" height="50" relative="1" as="geometry">
            <mxPoint x="314" y="298" as="sourcePoint" />
            <mxPoint x="205" y="420" as="targetPoint" />
          </mxGeometry>
        </mxCell>
        <mxCell id="Ae2gHTVc8_5ClM0TU5Tf-38" value="" style="endArrow=none;html=1;rounded=0;strokeColor=#A8201A;fontColor=default;fillColor=#FAE5C7;entryX=0.5;entryY=0;entryDx=0;entryDy=0;fontStyle=1;shape=link;labelBackgroundColor=none;" edge="1" parent="1" source="Ae2gHTVc8_5ClM0TU5Tf-36" target="Ae2gHTVc8_5ClM0TU5Tf-30">
          <mxGeometry width="50" height="50" relative="1" as="geometry">
            <mxPoint x="230" y="110" as="sourcePoint" />
            <mxPoint x="610" y="235" as="targetPoint" />
            <Array as="points" />
          </mxGeometry>
        </mxCell>
        <mxCell id="Ae2gHTVc8_5ClM0TU5Tf-40" value="1" style="text;html=1;align=center;verticalAlign=middle;whiteSpace=wrap;rounded=0;fontColor=#143642;fontStyle=1;labelBackgroundColor=none;" vertex="1" parent="1">
          <mxGeometry x="640" y="110" width="60" height="30" as="geometry" />
        </mxCell>
        <mxCell id="Ae2gHTVc8_5ClM0TU5Tf-41" value="M" style="text;html=1;align=center;verticalAlign=middle;whiteSpace=wrap;rounded=0;fontColor=#143642;fontStyle=1;labelBackgroundColor=none;" vertex="1" parent="1">
          <mxGeometry x="590" y="30" width="60" height="30" as="geometry" />
        </mxCell>
        <mxCell id="Ae2gHTVc8_5ClM0TU5Tf-42" value="Programer" style="whiteSpace=wrap;html=1;align=center;strokeColor=#0F8B8D;fontColor=#143642;fillColor=#FAE5C7;fontStyle=1;labelBackgroundColor=none;" vertex="1" parent="1">
          <mxGeometry x="-470" y="360" width="100" height="40" as="geometry" />
        </mxCell>
        <mxCell id="Ae2gHTVc8_5ClM0TU5Tf-43" value="Admin" style="whiteSpace=wrap;html=1;align=center;strokeColor=#0F8B8D;fontColor=#143642;fillColor=#FAE5C7;fontStyle=1;labelBackgroundColor=none;" vertex="1" parent="1">
          <mxGeometry x="-60" y="410" width="100" height="40" as="geometry" />
        </mxCell>
        <mxCell id="Ae2gHTVc8_5ClM0TU5Tf-44" value="" style="endArrow=none;html=1;rounded=0;strokeColor=#A8201A;fontColor=#143642;fillColor=#FAE5C7;exitX=0.5;exitY=0;exitDx=0;exitDy=0;entryX=0;entryY=0.5;entryDx=0;entryDy=0;fontStyle=1" edge="1" parent="1" source="Ae2gHTVc8_5ClM0TU5Tf-42" target="Ae2gHTVc8_5ClM0TU5Tf-15">
          <mxGeometry width="50" height="50" relative="1" as="geometry">
            <mxPoint x="50" y="530" as="sourcePoint" />
            <mxPoint x="100" y="480" as="targetPoint" />
          </mxGeometry>
        </mxCell>
        <mxCell id="Ae2gHTVc8_5ClM0TU5Tf-45" value="" style="endArrow=none;html=1;rounded=0;strokeColor=#A8201A;fontColor=#143642;fillColor=#FAE5C7;exitX=0.5;exitY=0;exitDx=0;exitDy=0;entryX=0.25;entryY=1;entryDx=0;entryDy=0;fontStyle=1" edge="1" parent="1" source="Ae2gHTVc8_5ClM0TU5Tf-43" target="Ae2gHTVc8_5ClM0TU5Tf-15">
          <mxGeometry width="50" height="50" relative="1" as="geometry">
            <mxPoint x="-220" y="420" as="sourcePoint" />
            <mxPoint x="20" y="280" as="targetPoint" />
          </mxGeometry>
        </mxCell>
        <mxCell id="Ae2gHTVc8_5ClM0TU5Tf-46" value="" style="shape=requiredInterface;html=1;verticalLabelPosition=bottom;sketch=0;strokeColor=#0F8B8D;fontColor=#143642;fillColor=#FAE5C7;rotation=-190;fontStyle=1;labelBackgroundColor=none;" vertex="1" parent="1">
          <mxGeometry x="-170" y="290" width="40" height="30" as="geometry" />
        </mxCell>
        <mxCell id="Ae2gHTVc8_5ClM0TU5Tf-51" value="" style="shape=requiredInterface;html=1;verticalLabelPosition=bottom;sketch=0;strokeColor=#0F8B8D;fontColor=#143642;fillColor=#FAE5C7;rotation=115;fontStyle=1;labelBackgroundColor=none;" vertex="1" parent="1">
          <mxGeometry x="-10" y="340" width="40" height="30" as="geometry" />
        </mxCell>
        <mxCell id="Ae2gHTVc8_5ClM0TU5Tf-52" value="SysAdmin" style="whiteSpace=wrap;html=1;align=center;strokeColor=#0F8B8D;fontColor=#143642;fillColor=#FAE5C7;fontStyle=1;labelBackgroundColor=none;" vertex="1" parent="1">
          <mxGeometry x="-180" y="580" width="100" height="40" as="geometry" />
        </mxCell>
        <mxCell id="Ae2gHTVc8_5ClM0TU5Tf-53" value="NetwrokAdmin" style="whiteSpace=wrap;html=1;align=center;strokeColor=#0F8B8D;fontColor=#143642;fillColor=#FAE5C7;fontStyle=1;labelBackgroundColor=none;" vertex="1" parent="1">
          <mxGeometry x="50" y="580" width="100" height="40" as="geometry" />
        </mxCell>
        <mxCell id="Ae2gHTVc8_5ClM0TU5Tf-54" value="o" style="ellipse;whiteSpace=wrap;html=1;aspect=fixed;strokeColor=#0F8B8D;fontColor=#143642;fillColor=#FAE5C7;fontStyle=1;labelBackgroundColor=none;" vertex="1" parent="1">
          <mxGeometry x="-30" y="500" width="40" height="40" as="geometry" />
        </mxCell>
        <mxCell id="Ae2gHTVc8_5ClM0TU5Tf-55" value="" style="endArrow=none;html=1;rounded=0;strokeColor=#A8201A;fontColor=#143642;fillColor=#FAE5C7;exitX=0.5;exitY=1;exitDx=0;exitDy=0;entryX=0.5;entryY=0;entryDx=0;entryDy=0;shape=link;fontStyle=1" edge="1" parent="1" source="Ae2gHTVc8_5ClM0TU5Tf-43" target="Ae2gHTVc8_5ClM0TU5Tf-54">
          <mxGeometry width="50" height="50" relative="1" as="geometry">
            <mxPoint x="50" y="530" as="sourcePoint" />
            <mxPoint x="100" y="480" as="targetPoint" />
          </mxGeometry>
        </mxCell>
        <mxCell id="Ae2gHTVc8_5ClM0TU5Tf-57" value="" style="endArrow=none;html=1;rounded=0;strokeColor=#A8201A;fontColor=#143642;fillColor=#FAE5C7;exitX=0.5;exitY=0;exitDx=0;exitDy=0;entryX=0;entryY=0.5;entryDx=0;entryDy=0;fontStyle=1" edge="1" parent="1" source="Ae2gHTVc8_5ClM0TU5Tf-52" target="Ae2gHTVc8_5ClM0TU5Tf-54">
          <mxGeometry width="50" height="50" relative="1" as="geometry">
            <mxPoint x="50" y="530" as="sourcePoint" />
            <mxPoint x="100" y="480" as="targetPoint" />
          </mxGeometry>
        </mxCell>
        <mxCell id="Ae2gHTVc8_5ClM0TU5Tf-58" value="" style="endArrow=none;html=1;rounded=0;strokeColor=#A8201A;fontColor=#143642;fillColor=#FAE5C7;exitX=0.25;exitY=0;exitDx=0;exitDy=0;entryX=1;entryY=0.5;entryDx=0;entryDy=0;fontStyle=1" edge="1" parent="1" source="Ae2gHTVc8_5ClM0TU5Tf-53" target="Ae2gHTVc8_5ClM0TU5Tf-54">
          <mxGeometry width="50" height="50" relative="1" as="geometry">
            <mxPoint x="-110" y="580" as="sourcePoint" />
            <mxPoint x="-20" y="530" as="targetPoint" />
          </mxGeometry>
        </mxCell>
        <mxCell id="Ae2gHTVc8_5ClM0TU5Tf-59" value="" style="shape=requiredInterface;html=1;verticalLabelPosition=bottom;sketch=0;strokeColor=#0F8B8D;fontColor=#143642;fillColor=#FAE5C7;rotation=-210;fontStyle=1;labelBackgroundColor=none;" vertex="1" parent="1">
          <mxGeometry x="-90" y="530" width="40" height="30" as="geometry" />
        </mxCell>
        <mxCell id="Ae2gHTVc8_5ClM0TU5Tf-60" value="" style="shape=requiredInterface;html=1;verticalLabelPosition=bottom;sketch=0;strokeColor=#0F8B8D;fontColor=#143642;fillColor=#FAE5C7;rotation=55;fontStyle=1;labelBackgroundColor=none;" vertex="1" parent="1">
          <mxGeometry x="20" y="530" width="40" height="30" as="geometry" />
        </mxCell>
        <mxCell id="Ae2gHTVc8_5ClM0TU5Tf-61" value="OS" style="ellipse;shape=doubleEllipse;margin=3;whiteSpace=wrap;html=1;align=center;strokeColor=#0F8B8D;fontColor=#143642;fillColor=#FAE5C7;fontStyle=1;labelBackgroundColor=none;" vertex="1" parent="1">
          <mxGeometry x="-210" y="510" width="100" height="40" as="geometry" />
        </mxCell>
        <mxCell id="Ae2gHTVc8_5ClM0TU5Tf-62" value="" style="endArrow=none;html=1;rounded=0;strokeColor=#A8201A;fontColor=#143642;fillColor=#FAE5C7;exitX=0.25;exitY=0;exitDx=0;exitDy=0;entryX=0.5;entryY=1;entryDx=0;entryDy=0;fontStyle=1" edge="1" parent="1" source="Ae2gHTVc8_5ClM0TU5Tf-52" target="Ae2gHTVc8_5ClM0TU5Tf-61">
          <mxGeometry width="50" height="50" relative="1" as="geometry">
            <mxPoint x="-120" y="590" as="sourcePoint" />
            <mxPoint x="-20" y="530" as="targetPoint" />
          </mxGeometry>
        </mxCell>
        <mxCell id="Ae2gHTVc8_5ClM0TU5Tf-63" value="rabotnoIskustvo" style="ellipse;whiteSpace=wrap;html=1;align=center;strokeColor=#0F8B8D;fontColor=#143642;fillColor=#FAE5C7;fontStyle=1;labelBackgroundColor=none;" vertex="1" parent="1">
          <mxGeometry x="100" y="500" width="100" height="40" as="geometry" />
        </mxCell>
        <mxCell id="Ae2gHTVc8_5ClM0TU5Tf-64" value="" style="endArrow=none;html=1;rounded=0;strokeColor=#A8201A;fontColor=#143642;fillColor=#FAE5C7;exitX=0.75;exitY=0;exitDx=0;exitDy=0;entryX=0.5;entryY=1;entryDx=0;entryDy=0;fontStyle=1" edge="1" parent="1" source="Ae2gHTVc8_5ClM0TU5Tf-53" target="Ae2gHTVc8_5ClM0TU5Tf-63">
          <mxGeometry width="50" height="50" relative="1" as="geometry">
            <mxPoint x="85" y="590" as="sourcePoint" />
            <mxPoint x="20" y="530" as="targetPoint" />
          </mxGeometry>
        </mxCell>
        <mxCell id="Ae2gHTVc8_5ClM0TU5Tf-65" value="Tehnologii" style="whiteSpace=wrap;html=1;align=center;strokeColor=#0F8B8D;fontColor=#143642;fillColor=#FAE5C7;fontStyle=1;labelBackgroundColor=none;" vertex="1" parent="1">
          <mxGeometry x="-470" y="590" width="100" height="40" as="geometry" />
        </mxCell>
        <mxCell id="Ae2gHTVc8_5ClM0TU5Tf-67" value="koristi" style="shape=rhombus;perimeter=rhombusPerimeter;whiteSpace=wrap;html=1;align=center;strokeColor=#0F8B8D;fontColor=#143642;fillColor=#FAE5C7;fontStyle=1;labelBackgroundColor=none;" vertex="1" parent="1">
          <mxGeometry x="-480" y="460" width="120" height="60" as="geometry" />
        </mxCell>
        <mxCell id="Ae2gHTVc8_5ClM0TU5Tf-68" value="" style="endArrow=none;html=1;rounded=0;strokeColor=#A8201A;fontColor=#143642;fillColor=#FAE5C7;entryX=0.5;entryY=1;entryDx=0;entryDy=0;exitX=0.5;exitY=0;exitDx=0;exitDy=0;shape=link;fontStyle=1" edge="1" parent="1" source="Ae2gHTVc8_5ClM0TU5Tf-67" target="Ae2gHTVc8_5ClM0TU5Tf-42">
          <mxGeometry width="50" height="50" relative="1" as="geometry">
            <mxPoint x="50" y="710" as="sourcePoint" />
            <mxPoint x="100" y="660" as="targetPoint" />
          </mxGeometry>
        </mxCell>
        <mxCell id="Ae2gHTVc8_5ClM0TU5Tf-69" value="" style="endArrow=none;html=1;rounded=0;strokeColor=#A8201A;fontColor=#143642;fillColor=#FAE5C7;entryX=0.5;entryY=1;entryDx=0;entryDy=0;shape=link;fontStyle=1" edge="1" parent="1" source="Ae2gHTVc8_5ClM0TU5Tf-65" target="Ae2gHTVc8_5ClM0TU5Tf-67">
          <mxGeometry width="50" height="50" relative="1" as="geometry">
            <mxPoint x="50" y="590" as="sourcePoint" />
            <mxPoint x="100" y="540" as="targetPoint" />
          </mxGeometry>
        </mxCell>
        <mxCell id="Ae2gHTVc8_5ClM0TU5Tf-70" value="N" style="text;html=1;align=center;verticalAlign=middle;whiteSpace=wrap;rounded=0;fontColor=#143642;fontStyle=1" vertex="1" parent="1">
          <mxGeometry x="-420" y="440" width="60" height="30" as="geometry" />
        </mxCell>
        <mxCell id="Ae2gHTVc8_5ClM0TU5Tf-71" value="M" style="text;html=1;align=center;verticalAlign=middle;whiteSpace=wrap;rounded=0;fontColor=#143642;fontStyle=1" vertex="1" parent="1">
          <mxGeometry x="-420" y="515" width="60" height="30" as="geometry" />
        </mxCell>
        <mxCell id="Ae2gHTVc8_5ClM0TU5Tf-75" style="edgeStyle=orthogonalEdgeStyle;rounded=0;orthogonalLoop=1;jettySize=auto;html=1;exitX=1;exitY=0.5;exitDx=0;exitDy=0;entryX=0;entryY=0;entryDx=0;entryDy=0;strokeColor=#A8201A;fontColor=#143642;fillColor=#FAE5C7;startArrow=none;startFill=0;endArrow=none;endFill=0;fontStyle=1" edge="1" parent="1" source="Ae2gHTVc8_5ClM0TU5Tf-72" target="Ae2gHTVc8_5ClM0TU5Tf-67">
          <mxGeometry relative="1" as="geometry" />
        </mxCell>
        <mxCell id="Ae2gHTVc8_5ClM0TU5Tf-72" value="stepenPodg." style="ellipse;whiteSpace=wrap;html=1;align=center;strokeColor=#0F8B8D;fontColor=#143642;fillColor=#FAE5C7;fontStyle=1;labelBackgroundColor=none;" vertex="1" parent="1">
          <mxGeometry x="-610" y="410" width="100" height="40" as="geometry" />
        </mxCell>
        <mxCell id="Ae2gHTVc8_5ClM0TU5Tf-73" value="funkcionalnosti" style="ellipse;shape=doubleEllipse;margin=3;whiteSpace=wrap;html=1;align=center;strokeColor=#0F8B8D;fontColor=#143642;fillColor=#FAE5C7;fontStyle=1;labelBackgroundColor=none;" vertex="1" parent="1">
          <mxGeometry x="-630" y="460" width="100" height="40" as="geometry" />
        </mxCell>
        <mxCell id="Ae2gHTVc8_5ClM0TU5Tf-74" value="" style="endArrow=none;html=1;rounded=0;strokeColor=#A8201A;fontColor=#143642;fillColor=#FAE5C7;exitX=1;exitY=1;exitDx=0;exitDy=0;entryX=0;entryY=1;entryDx=0;entryDy=0;fontStyle=1" edge="1" parent="1" source="Ae2gHTVc8_5ClM0TU5Tf-73" target="Ae2gHTVc8_5ClM0TU5Tf-67">
          <mxGeometry width="50" height="50" relative="1" as="geometry">
            <mxPoint x="-150" y="590" as="sourcePoint" />
            <mxPoint x="-100" y="540" as="targetPoint" />
          </mxGeometry>
        </mxCell>
        <mxCell id="Ae2gHTVc8_5ClM0TU5Tf-76" value="Rabotilnica" style="whiteSpace=wrap;html=1;align=center;strokeColor=#0F8B8D;fontColor=#143642;fillColor=#FAE5C7;fontStyle=1;labelBackgroundColor=none;" vertex="1" parent="1">
          <mxGeometry x="960" y="270" width="100" height="40" as="geometry" />
        </mxCell>
        <mxCell id="Ae2gHTVc8_5ClM0TU5Tf-79" value="&lt;u&gt;ime&lt;/u&gt;" style="ellipse;whiteSpace=wrap;html=1;align=center;strokeColor=#0F8B8D;fontColor=#143642;fillColor=#FAE5C7;fontStyle=1;labelBackgroundColor=none;" vertex="1" parent="1">
          <mxGeometry x="1080" y="195" width="100" height="40" as="geometry" />
        </mxCell>
        <mxCell id="Ae2gHTVc8_5ClM0TU5Tf-81" value="&lt;span&gt;temi&lt;/span&gt;" style="ellipse;shape=doubleEllipse;margin=3;whiteSpace=wrap;html=1;align=center;strokeColor=#0F8B8D;fontColor=#143642;fillColor=#FAE5C7;fontStyle=1" vertex="1" parent="1">
          <mxGeometry x="1110" y="240" width="100" height="40" as="geometry" />
        </mxCell>
        <mxCell id="Ae2gHTVc8_5ClM0TU5Tf-82" value="" style="endArrow=none;html=1;rounded=0;strokeColor=#A8201A;fontColor=#143642;fillColor=#FAE5C7;entryX=0;entryY=0.5;entryDx=0;entryDy=0;exitX=0.75;exitY=0;exitDx=0;exitDy=0;fontStyle=1" edge="1" parent="1" source="Ae2gHTVc8_5ClM0TU5Tf-76" target="Ae2gHTVc8_5ClM0TU5Tf-79">
          <mxGeometry width="50" height="50" relative="1" as="geometry">
            <mxPoint x="780" y="360" as="sourcePoint" />
            <mxPoint x="830" y="310" as="targetPoint" />
          </mxGeometry>
        </mxCell>
        <mxCell id="Ae2gHTVc8_5ClM0TU5Tf-83" value="" style="endArrow=none;html=1;rounded=0;strokeColor=#A8201A;fontColor=#143642;fillColor=#FAE5C7;entryX=0;entryY=0.5;entryDx=0;entryDy=0;exitX=1;exitY=0.5;exitDx=0;exitDy=0;fontStyle=1" edge="1" parent="1" source="Ae2gHTVc8_5ClM0TU5Tf-76" target="Ae2gHTVc8_5ClM0TU5Tf-81">
          <mxGeometry width="50" height="50" relative="1" as="geometry">
            <mxPoint x="1045" y="260" as="sourcePoint" />
            <mxPoint x="1080" y="220" as="targetPoint" />
          </mxGeometry>
        </mxCell>
        <mxCell id="Ae2gHTVc8_5ClM0TU5Tf-84" value="zadolzen" style="shape=rhombus;perimeter=rhombusPerimeter;whiteSpace=wrap;html=1;align=center;strokeColor=#0F8B8D;fontColor=#143642;fillColor=#FAE5C7;fontStyle=1" vertex="1" parent="1">
          <mxGeometry x="740" y="260" width="120" height="60" as="geometry" />
        </mxCell>
        <mxCell id="Ae2gHTVc8_5ClM0TU5Tf-92" value="" style="endArrow=none;html=1;rounded=0;strokeColor=#A8201A;fontColor=#143642;fillColor=#FAE5C7;exitX=1;exitY=0.5;exitDx=0;exitDy=0;entryX=0;entryY=0.5;entryDx=0;entryDy=0;fontStyle=1" edge="1" parent="1" source="Ae2gHTVc8_5ClM0TU5Tf-16" target="Ae2gHTVc8_5ClM0TU5Tf-84">
          <mxGeometry width="50" height="50" relative="1" as="geometry">
            <mxPoint x="820" y="390" as="sourcePoint" />
            <mxPoint x="870" y="340" as="targetPoint" />
          </mxGeometry>
        </mxCell>
        <mxCell id="Ae2gHTVc8_5ClM0TU5Tf-93" value="" style="endArrow=none;html=1;rounded=0;strokeColor=#A8201A;fontColor=#143642;fillColor=#FAE5C7;exitX=1;exitY=0.5;exitDx=0;exitDy=0;entryX=0;entryY=0.5;entryDx=0;entryDy=0;shape=link;fontStyle=1" edge="1" parent="1" source="Ae2gHTVc8_5ClM0TU5Tf-84" target="Ae2gHTVc8_5ClM0TU5Tf-76">
          <mxGeometry width="50" height="50" relative="1" as="geometry">
            <mxPoint x="630" y="300" as="sourcePoint" />
            <mxPoint x="750" y="300" as="targetPoint" />
          </mxGeometry>
        </mxCell>
        <mxCell id="Ae2gHTVc8_5ClM0TU5Tf-94" value="M" style="text;html=1;align=center;verticalAlign=middle;whiteSpace=wrap;rounded=0;fontColor=#143642;fontStyle=1" vertex="1" parent="1">
          <mxGeometry x="710" y="250" width="60" height="30" as="geometry" />
        </mxCell>
        <mxCell id="Ae2gHTVc8_5ClM0TU5Tf-95" value="N" style="text;html=1;align=center;verticalAlign=middle;whiteSpace=wrap;rounded=0;fontColor=#143642;fontStyle=1" vertex="1" parent="1">
          <mxGeometry x="820" y="245" width="60" height="30" as="geometry" />
        </mxCell>
        <mxCell id="Ae2gHTVc8_5ClM0TU5Tf-96" value="Oddrzuvanje Rab." style="whiteSpace=wrap;html=1;align=center;strokeColor=#0F8B8D;fontColor=#143642;fillColor=#FAE5C7;fontStyle=1;labelBackgroundColor=none;" vertex="1" parent="1">
          <mxGeometry x="960" y="450" width="100" height="40" as="geometry" />
        </mxCell>
        <mxCell id="Ae2gHTVc8_5ClM0TU5Tf-98" value="odgovoren" style="shape=rhombus;perimeter=rhombusPerimeter;whiteSpace=wrap;html=1;align=center;strokeColor=#0F8B8D;fontColor=#143642;fillColor=#FAE5C7;fontStyle=1;labelBackgroundColor=none;" vertex="1" parent="1">
          <mxGeometry x="950" y="350" width="120" height="60" as="geometry" />
        </mxCell>
        <mxCell id="Ae2gHTVc8_5ClM0TU5Tf-99" value="" style="endArrow=none;html=1;rounded=0;strokeColor=#A8201A;fontColor=#143642;fillColor=#FAE5C7;entryX=0.5;entryY=1;entryDx=0;entryDy=0;shape=link;" edge="1" parent="1" source="Ae2gHTVc8_5ClM0TU5Tf-98" target="Ae2gHTVc8_5ClM0TU5Tf-76">
          <mxGeometry width="50" height="50" relative="1" as="geometry">
            <mxPoint x="820" y="390" as="sourcePoint" />
            <mxPoint x="870" y="340" as="targetPoint" />
          </mxGeometry>
        </mxCell>
        <mxCell id="Ae2gHTVc8_5ClM0TU5Tf-100" value="" style="endArrow=none;html=1;rounded=0;strokeColor=#A8201A;fontColor=#143642;fillColor=#FAE5C7;entryX=0.5;entryY=1;entryDx=0;entryDy=0;exitX=0.5;exitY=0;exitDx=0;exitDy=0;shape=link;" edge="1" parent="1" source="Ae2gHTVc8_5ClM0TU5Tf-96" target="Ae2gHTVc8_5ClM0TU5Tf-98">
          <mxGeometry width="50" height="50" relative="1" as="geometry">
            <mxPoint x="820" y="390" as="sourcePoint" />
            <mxPoint x="870" y="340" as="targetPoint" />
          </mxGeometry>
        </mxCell>
        <mxCell id="Ae2gHTVc8_5ClM0TU5Tf-101" value="1" style="text;html=1;align=center;verticalAlign=middle;whiteSpace=wrap;rounded=0;fontColor=#143642;fontStyle=1;labelBackgroundColor=none;" vertex="1" parent="1">
          <mxGeometry x="940" y="330" width="60" height="30" as="geometry" />
        </mxCell>
        <mxCell id="Ae2gHTVc8_5ClM0TU5Tf-102" value="N" style="text;html=1;align=center;verticalAlign=middle;whiteSpace=wrap;rounded=0;fontColor=#143642;fontStyle=1" vertex="1" parent="1">
          <mxGeometry x="950" y="400" width="60" height="30" as="geometry" />
        </mxCell>
        <mxCell id="Ae2gHTVc8_5ClM0TU5Tf-103" value="godina" style="ellipse;whiteSpace=wrap;html=1;align=center;strokeColor=#0F8B8D;fontColor=#143642;fillColor=#FAE5C7;fontStyle=1;labelBackgroundColor=none;" vertex="1" parent="1">
          <mxGeometry x="1080" y="400" width="100" height="40" as="geometry" />
        </mxCell>
        <mxCell id="Ae2gHTVc8_5ClM0TU5Tf-104" value="" style="endArrow=none;html=1;rounded=0;strokeColor=#A8201A;fontColor=#143642;fillColor=#FAE5C7;entryX=0;entryY=1;entryDx=0;entryDy=0;exitX=1;exitY=0;exitDx=0;exitDy=0;" edge="1" parent="1" source="Ae2gHTVc8_5ClM0TU5Tf-96" target="Ae2gHTVc8_5ClM0TU5Tf-103">
          <mxGeometry width="50" height="50" relative="1" as="geometry">
            <mxPoint x="730" y="520" as="sourcePoint" />
            <mxPoint x="780" y="470" as="targetPoint" />
          </mxGeometry>
        </mxCell>
        <mxCell id="Ae2gHTVc8_5ClM0TU5Tf-105" value="Vraboten" style="whiteSpace=wrap;html=1;align=center;strokeColor=#0F8B8D;fontColor=#143642;fillColor=#FAE5C7;fontStyle=1;labelBackgroundColor=none;" vertex="1" parent="1">
          <mxGeometry x="960" y="670" width="100" height="40" as="geometry" />
        </mxCell>
        <mxCell id="Ae2gHTVc8_5ClM0TU5Tf-106" value="ucestuva" style="shape=rhombus;perimeter=rhombusPerimeter;whiteSpace=wrap;html=1;align=center;strokeColor=#0F8B8D;fontColor=#143642;fillColor=#FAE5C7;fontStyle=1;labelBackgroundColor=none;" vertex="1" parent="1">
          <mxGeometry x="950" y="550" width="120" height="60" as="geometry" />
        </mxCell>
        <mxCell id="Ae2gHTVc8_5ClM0TU5Tf-107" value="" style="endArrow=none;html=1;rounded=0;strokeColor=#A8201A;fontColor=#143642;fillColor=#FAE5C7;entryX=0.5;entryY=1;entryDx=0;entryDy=0;shape=link;" edge="1" parent="1" source="Ae2gHTVc8_5ClM0TU5Tf-106" target="Ae2gHTVc8_5ClM0TU5Tf-96">
          <mxGeometry width="50" height="50" relative="1" as="geometry">
            <mxPoint x="730" y="520" as="sourcePoint" />
            <mxPoint x="780" y="470" as="targetPoint" />
          </mxGeometry>
        </mxCell>
        <mxCell id="Ae2gHTVc8_5ClM0TU5Tf-108" value="" style="endArrow=none;html=1;rounded=0;strokeColor=#A8201A;fontColor=#143642;fillColor=#FAE5C7;entryX=0.5;entryY=0;entryDx=0;entryDy=0;exitX=0.5;exitY=1;exitDx=0;exitDy=0;" edge="1" parent="1" source="Ae2gHTVc8_5ClM0TU5Tf-106" target="Ae2gHTVc8_5ClM0TU5Tf-105">
          <mxGeometry width="50" height="50" relative="1" as="geometry">
            <mxPoint x="914" y="562" as="sourcePoint" />
            <mxPoint x="995" y="500" as="targetPoint" />
          </mxGeometry>
        </mxCell>
        <mxCell id="Ae2gHTVc8_5ClM0TU5Tf-109" value="N" style="text;html=1;align=center;verticalAlign=middle;whiteSpace=wrap;rounded=0;fontColor=#143642;fontStyle=1" vertex="1" parent="1">
          <mxGeometry x="940" y="595" width="60" height="30" as="geometry" />
        </mxCell>
        <mxCell id="Ae2gHTVc8_5ClM0TU5Tf-110" value="M" style="text;html=1;align=center;verticalAlign=middle;whiteSpace=wrap;rounded=0;fontColor=#143642;fontStyle=1" vertex="1" parent="1">
          <mxGeometry x="940" y="535" width="60" height="30" as="geometry" />
        </mxCell>
        <mxCell id="Ae2gHTVc8_5ClM0TU5Tf-112" value="predava" style="shape=rhombus;perimeter=rhombusPerimeter;whiteSpace=wrap;html=1;align=center;strokeColor=#0F8B8D;fontColor=#143642;fillColor=#FAE5C7;fontStyle=1;labelBackgroundColor=none;" vertex="1" parent="1">
          <mxGeometry x="510" y="450" width="120" height="60" as="geometry" />
        </mxCell>
        <mxCell id="Ae2gHTVc8_5ClM0TU5Tf-113" value="" style="endArrow=none;html=1;rounded=0;strokeColor=#A8201A;fontColor=#143642;fillColor=#FAE5C7;entryX=1;entryY=0.5;entryDx=0;entryDy=0;exitX=0;exitY=0.5;exitDx=0;exitDy=0;" edge="1" parent="1" source="Ae2gHTVc8_5ClM0TU5Tf-112" target="Ae2gHTVc8_5ClM0TU5Tf-30">
          <mxGeometry width="50" height="50" relative="1" as="geometry">
            <mxPoint x="610" y="500" as="sourcePoint" />
            <mxPoint x="660" y="450" as="targetPoint" />
          </mxGeometry>
        </mxCell>
        <mxCell id="Ae2gHTVc8_5ClM0TU5Tf-114" value="" style="endArrow=none;html=1;rounded=0;strokeColor=#A8201A;fontColor=#143642;fillColor=#FAE5C7;entryX=1;entryY=0.5;entryDx=0;entryDy=0;exitX=0;exitY=0.5;exitDx=0;exitDy=0;shape=link;" edge="1" parent="1" source="Ae2gHTVc8_5ClM0TU5Tf-96" target="Ae2gHTVc8_5ClM0TU5Tf-112">
          <mxGeometry width="50" height="50" relative="1" as="geometry">
            <mxPoint x="520" y="490" as="sourcePoint" />
            <mxPoint x="260" y="440" as="targetPoint" />
          </mxGeometry>
        </mxCell>
        <mxCell id="Ae2gHTVc8_5ClM0TU5Tf-115" value="N" style="text;html=1;align=center;verticalAlign=middle;whiteSpace=wrap;rounded=0;fontColor=#143642;fontStyle=1" vertex="1" parent="1">
          <mxGeometry x="620" y="440" width="60" height="30" as="geometry" />
        </mxCell>
        <mxCell id="Ae2gHTVc8_5ClM0TU5Tf-116" value="M" style="text;html=1;align=center;verticalAlign=middle;whiteSpace=wrap;rounded=0;fontColor=#143642;fontStyle=1;labelBackgroundColor=none;" vertex="1" parent="1">
          <mxGeometry x="470" y="440" width="60" height="30" as="geometry" />
        </mxCell>
      </root>
    </mxGraphModel>
  </diagram>
  <diagram id="FeFVoPG4Qbk6QH0eHraM" name="Page-2">
    <mxGraphModel dx="2600" dy="2048" grid="1" gridSize="10" guides="1" tooltips="1" connect="1" arrows="1" fold="1" page="1" pageScale="1" pageWidth="850" pageHeight="1100" math="0" shadow="0">
      <root>
        <mxCell id="0" />
        <mxCell id="1" parent="0" />
        <mxCell id="EdUuXEqN525XKFLtyAf0-1" value="Kniga" style="whiteSpace=wrap;html=1;align=center;strokeColor=#0F8B8D;fontColor=#143642;fillColor=#FAE5C7;fontStyle=1" vertex="1" parent="1">
          <mxGeometry x="-30" y="95" width="100" height="40" as="geometry" />
        </mxCell>
        <mxCell id="EdUuXEqN525XKFLtyAf0-2" value="naslov" style="ellipse;whiteSpace=wrap;html=1;align=center;strokeColor=#0F8B8D;fontColor=#143642;fillColor=#FAE5C7;fontStyle=1" vertex="1" parent="1">
          <mxGeometry x="-470" y="95" width="100" height="40" as="geometry" />
        </mxCell>
        <mxCell id="EdUuXEqN525XKFLtyAf0-3" value="&lt;u&gt;inv. Broj&lt;/u&gt;" style="ellipse;whiteSpace=wrap;html=1;align=center;strokeColor=#0F8B8D;fontColor=#143642;fillColor=#FAE5C7;fontStyle=1" vertex="1" parent="1">
          <mxGeometry x="-340" y="85" width="100" height="40" as="geometry" />
        </mxCell>
        <mxCell id="EdUuXEqN525XKFLtyAf0-5" value="brojStrani" style="ellipse;whiteSpace=wrap;html=1;align=center;strokeColor=#0F8B8D;fontColor=#143642;fillColor=#FAE5C7;fontStyle=1" vertex="1" parent="1">
          <mxGeometry x="-160" y="45" width="100" height="40" as="geometry" />
        </mxCell>
        <mxCell id="EdUuXEqN525XKFLtyAf0-6" value="" style="endArrow=none;html=1;rounded=0;strokeColor=#A8201A;fontColor=#143642;fillColor=#FAE5C7;exitX=0.572;exitY=1.005;exitDx=0;exitDy=0;exitPerimeter=0;entryX=0.132;entryY=0.055;entryDx=0;entryDy=0;fontStyle=1;entryPerimeter=0;" edge="1" parent="1" source="EdUuXEqN525XKFLtyAf0-2" target="EdUuXEqN525XKFLtyAf0-42">
          <mxGeometry width="50" height="50" relative="1" as="geometry">
            <mxPoint x="260" y="365" as="sourcePoint" />
            <mxPoint x="310" y="315" as="targetPoint" />
          </mxGeometry>
        </mxCell>
        <mxCell id="EdUuXEqN525XKFLtyAf0-7" value="" style="endArrow=none;html=1;rounded=0;strokeColor=#A8201A;fontColor=#143642;fillColor=#FAE5C7;exitX=0.404;exitY=0.975;exitDx=0;exitDy=0;exitPerimeter=0;fontStyle=1;entryX=0.5;entryY=0;entryDx=0;entryDy=0;" edge="1" parent="1" source="EdUuXEqN525XKFLtyAf0-3" target="EdUuXEqN525XKFLtyAf0-42">
          <mxGeometry width="50" height="50" relative="1" as="geometry">
            <mxPoint x="47" y="145" as="sourcePoint" />
            <mxPoint x="80" y="175" as="targetPoint" />
          </mxGeometry>
        </mxCell>
        <mxCell id="EdUuXEqN525XKFLtyAf0-8" value="" style="endArrow=none;html=1;rounded=0;strokeColor=#A8201A;fontColor=#143642;fillColor=#FAE5C7;exitX=0.5;exitY=1;exitDx=0;exitDy=0;entryX=0;entryY=0.25;entryDx=0;entryDy=0;fontStyle=1" edge="1" parent="1" source="EdUuXEqN525XKFLtyAf0-5" target="EdUuXEqN525XKFLtyAf0-1">
          <mxGeometry width="50" height="50" relative="1" as="geometry">
            <mxPoint x="100" y="69" as="sourcePoint" />
            <mxPoint x="100" y="110" as="targetPoint" />
          </mxGeometry>
        </mxCell>
        <mxCell id="EdUuXEqN525XKFLtyAf0-10" value="Spisanie" style="whiteSpace=wrap;html=1;align=center;strokeColor=#0F8B8D;fontColor=#143642;fillColor=#FAE5C7;fontStyle=1" vertex="1" parent="1">
          <mxGeometry x="-20" y="310" width="100" height="40" as="geometry" />
        </mxCell>
        <mxCell id="EdUuXEqN525XKFLtyAf0-13" value="broj" style="ellipse;whiteSpace=wrap;html=1;align=center;strokeColor=#0F8B8D;fontColor=#143642;fillColor=#FAE5C7;fontStyle=1" vertex="1" parent="1">
          <mxGeometry x="-10" y="400" width="100" height="40" as="geometry" />
        </mxCell>
        <mxCell id="EdUuXEqN525XKFLtyAf0-16" value="" style="endArrow=none;html=1;rounded=0;strokeColor=#A8201A;fontColor=#143642;fillColor=#FAE5C7;exitX=0.5;exitY=0;exitDx=0;exitDy=0;entryX=0.6;entryY=1.025;entryDx=0;entryDy=0;fontStyle=1;entryPerimeter=0;" edge="1" parent="1" source="EdUuXEqN525XKFLtyAf0-13" target="EdUuXEqN525XKFLtyAf0-10">
          <mxGeometry width="50" height="50" relative="1" as="geometry">
            <mxPoint x="20" y="300" as="sourcePoint" />
            <mxPoint x="10" y="320" as="targetPoint" />
          </mxGeometry>
        </mxCell>
        <mxCell id="EdUuXEqN525XKFLtyAf0-17" value="Primerok" style="whiteSpace=wrap;html=1;align=center;strokeColor=#0F8B8D;fontColor=#143642;fillColor=#FAE5C7;movable=1;resizable=1;rotatable=1;deletable=1;editable=1;locked=0;connectable=1;fontStyle=1" vertex="1" parent="1">
          <mxGeometry x="430" y="180" width="100" height="40" as="geometry" />
        </mxCell>
        <mxCell id="EdUuXEqN525XKFLtyAf0-18" value="Primerok" style="whiteSpace=wrap;html=1;align=center;strokeColor=#0F8B8D;fontColor=#143642;fillColor=none;movable=1;resizable=1;rotatable=1;deletable=1;editable=1;locked=0;connectable=1;fontStyle=1" vertex="1" parent="1">
          <mxGeometry x="422.5" y="175" width="115" height="50" as="geometry" />
        </mxCell>
        <mxCell id="EdUuXEqN525XKFLtyAf0-19" value="ima" style="shape=rhombus;double=1;perimeter=rhombusPerimeter;whiteSpace=wrap;html=1;align=center;strokeColor=#0F8B8D;fontColor=#143642;fillColor=#FAE5C7;fontStyle=1" vertex="1" parent="1">
          <mxGeometry x="240" y="110" width="90" height="50" as="geometry" />
        </mxCell>
        <mxCell id="EdUuXEqN525XKFLtyAf0-20" value="ima" style="shape=rhombus;double=1;perimeter=rhombusPerimeter;whiteSpace=wrap;html=1;align=center;strokeColor=#0F8B8D;fontColor=#143642;fillColor=#FAE5C7;fontStyle=1" vertex="1" parent="1">
          <mxGeometry x="250" y="295" width="90" height="50" as="geometry" />
        </mxCell>
        <mxCell id="EdUuXEqN525XKFLtyAf0-21" value="" style="endArrow=none;html=1;rounded=0;strokeColor=#A8201A;fontColor=#143642;fillColor=#FAE5C7;exitX=1;exitY=0.5;exitDx=0;exitDy=0;entryX=0;entryY=0.5;entryDx=0;entryDy=0;fontStyle=1" edge="1" parent="1" source="EdUuXEqN525XKFLtyAf0-1" target="EdUuXEqN525XKFLtyAf0-19">
          <mxGeometry width="50" height="50" relative="1" as="geometry">
            <mxPoint x="230" y="220" as="sourcePoint" />
            <mxPoint x="280" y="170" as="targetPoint" />
          </mxGeometry>
        </mxCell>
        <mxCell id="EdUuXEqN525XKFLtyAf0-22" value="" style="endArrow=none;html=1;rounded=0;strokeColor=#A8201A;fontColor=#143642;fillColor=#FAE5C7;exitX=1;exitY=1;exitDx=0;exitDy=0;entryX=0;entryY=0.5;entryDx=0;entryDy=0;shape=link;fontStyle=1" edge="1" parent="1" source="EdUuXEqN525XKFLtyAf0-19" target="EdUuXEqN525XKFLtyAf0-18">
          <mxGeometry width="50" height="50" relative="1" as="geometry">
            <mxPoint x="150" y="130" as="sourcePoint" />
            <mxPoint x="250" y="145" as="targetPoint" />
          </mxGeometry>
        </mxCell>
        <mxCell id="EdUuXEqN525XKFLtyAf0-23" value="" style="endArrow=none;html=1;rounded=0;strokeColor=#A8201A;fontColor=#143642;fillColor=#FAE5C7;exitX=1;exitY=0;exitDx=0;exitDy=0;entryX=0;entryY=0.75;entryDx=0;entryDy=0;shape=link;fontStyle=1" edge="1" parent="1" source="EdUuXEqN525XKFLtyAf0-20" target="EdUuXEqN525XKFLtyAf0-18">
          <mxGeometry width="50" height="50" relative="1" as="geometry">
            <mxPoint x="318" y="158" as="sourcePoint" />
            <mxPoint x="433" y="210" as="targetPoint" />
          </mxGeometry>
        </mxCell>
        <mxCell id="EdUuXEqN525XKFLtyAf0-24" value="" style="endArrow=none;html=1;rounded=0;strokeColor=#A8201A;fontColor=#143642;fillColor=#FAE5C7;exitX=0;exitY=0.5;exitDx=0;exitDy=0;entryX=1;entryY=0.5;entryDx=0;entryDy=0;fontStyle=1" edge="1" parent="1" source="EdUuXEqN525XKFLtyAf0-20" target="EdUuXEqN525XKFLtyAf0-10">
          <mxGeometry width="50" height="50" relative="1" as="geometry">
            <mxPoint x="150" y="290" as="sourcePoint" />
            <mxPoint x="65" y="320" as="targetPoint" />
          </mxGeometry>
        </mxCell>
        <mxCell id="EdUuXEqN525XKFLtyAf0-25" value="1" style="text;html=1;align=center;verticalAlign=middle;whiteSpace=wrap;rounded=0;fontColor=#143642;fontStyle=1" vertex="1" parent="1">
          <mxGeometry x="220" y="290" width="60" height="30" as="geometry" />
        </mxCell>
        <mxCell id="EdUuXEqN525XKFLtyAf0-26" value="M" style="text;html=1;align=center;verticalAlign=middle;whiteSpace=wrap;rounded=0;fontColor=#143642;fontStyle=1" vertex="1" parent="1">
          <mxGeometry x="300" y="265" width="60" height="30" as="geometry" />
        </mxCell>
        <mxCell id="EdUuXEqN525XKFLtyAf0-27" value="M" style="text;html=1;align=center;verticalAlign=middle;whiteSpace=wrap;rounded=0;fontColor=#143642;fontStyle=1" vertex="1" parent="1">
          <mxGeometry x="300" y="95" width="60" height="30" as="geometry" />
        </mxCell>
        <mxCell id="EdUuXEqN525XKFLtyAf0-28" value="1" style="text;html=1;align=center;verticalAlign=middle;whiteSpace=wrap;rounded=0;fontColor=#143642;fontStyle=1" vertex="1" parent="1">
          <mxGeometry x="210" y="95" width="60" height="30" as="geometry" />
        </mxCell>
        <mxCell id="EdUuXEqN525XKFLtyAf0-30" value="Clen" style="whiteSpace=wrap;html=1;align=center;strokeColor=#0F8B8D;fontColor=#143642;fillColor=#FAE5C7;fontStyle=1" vertex="1" parent="1">
          <mxGeometry x="790" y="180" width="100" height="40" as="geometry" />
        </mxCell>
        <mxCell id="EdUuXEqN525XKFLtyAf0-31" value="pozajmuva" style="shape=rhombus;perimeter=rhombusPerimeter;whiteSpace=wrap;html=1;align=center;strokeColor=#0F8B8D;fontColor=#143642;fillColor=#FAE5C7;fontStyle=1" vertex="1" parent="1">
          <mxGeometry x="620" y="175" width="80" height="55" as="geometry" />
        </mxCell>
        <mxCell id="EdUuXEqN525XKFLtyAf0-32" value="" style="endArrow=none;html=1;rounded=0;strokeColor=#A8201A;fontColor=#143642;fillColor=#FAE5C7;exitX=1;exitY=0.5;exitDx=0;exitDy=0;entryX=0;entryY=0.5;entryDx=0;entryDy=0;fontStyle=1" edge="1" parent="1" source="EdUuXEqN525XKFLtyAf0-18" target="EdUuXEqN525XKFLtyAf0-31">
          <mxGeometry width="50" height="50" relative="1" as="geometry">
            <mxPoint x="270" y="325" as="sourcePoint" />
            <mxPoint x="90" y="340" as="targetPoint" />
          </mxGeometry>
        </mxCell>
        <mxCell id="EdUuXEqN525XKFLtyAf0-33" value="" style="endArrow=none;html=1;rounded=0;strokeColor=#A8201A;fontColor=#143642;fillColor=#FAE5C7;exitX=1;exitY=0.5;exitDx=0;exitDy=0;entryX=0;entryY=0.5;entryDx=0;entryDy=0;shape=link;fontStyle=1" edge="1" parent="1" source="EdUuXEqN525XKFLtyAf0-31" target="EdUuXEqN525XKFLtyAf0-30">
          <mxGeometry width="50" height="50" relative="1" as="geometry">
            <mxPoint x="548" y="210" as="sourcePoint" />
            <mxPoint x="630" y="210" as="targetPoint" />
          </mxGeometry>
        </mxCell>
        <mxCell id="EdUuXEqN525XKFLtyAf0-34" value="M" style="text;html=1;align=center;verticalAlign=middle;whiteSpace=wrap;rounded=0;fontColor=#143642;fontStyle=1" vertex="1" parent="1">
          <mxGeometry x="580" y="170" width="60" height="30" as="geometry" />
        </mxCell>
        <mxCell id="EdUuXEqN525XKFLtyAf0-35" value="N" style="text;html=1;align=center;verticalAlign=middle;whiteSpace=wrap;rounded=0;fontColor=#143642;fontStyle=1" vertex="1" parent="1">
          <mxGeometry x="670" y="170" width="60" height="30" as="geometry" />
        </mxCell>
        <mxCell id="EdUuXEqN525XKFLtyAf0-36" value="status" style="ellipse;whiteSpace=wrap;html=1;align=center;strokeColor=#0F8B8D;fontColor=#143642;fillColor=#FAE5C7;fontStyle=1" vertex="1" parent="1">
          <mxGeometry x="530" y="265" width="100" height="40" as="geometry" />
        </mxCell>
        <mxCell id="EdUuXEqN525XKFLtyAf0-37" value="datumZimanje" style="ellipse;whiteSpace=wrap;html=1;align=center;strokeColor=#0F8B8D;fontColor=#143642;fillColor=#FAE5C7;fontStyle=1" vertex="1" parent="1">
          <mxGeometry x="620" y="300" width="100" height="40" as="geometry" />
        </mxCell>
        <mxCell id="EdUuXEqN525XKFLtyAf0-38" value="datumVrakanje" style="ellipse;whiteSpace=wrap;html=1;align=center;strokeColor=#0F8B8D;fontColor=#143642;fillColor=#FAE5C7;fontStyle=1" vertex="1" parent="1">
          <mxGeometry x="690" y="260" width="100" height="40" as="geometry" />
        </mxCell>
        <mxCell id="EdUuXEqN525XKFLtyAf0-39" value="" style="endArrow=none;html=1;rounded=0;strokeColor=#A8201A;fontColor=#143642;fillColor=#FAE5C7;entryX=0;entryY=1;entryDx=0;entryDy=0;exitX=0.5;exitY=0;exitDx=0;exitDy=0;fontStyle=1" edge="1" parent="1" source="EdUuXEqN525XKFLtyAf0-36" target="EdUuXEqN525XKFLtyAf0-31">
          <mxGeometry width="50" height="50" relative="1" as="geometry">
            <mxPoint x="350" y="220" as="sourcePoint" />
            <mxPoint x="400" y="170" as="targetPoint" />
          </mxGeometry>
        </mxCell>
        <mxCell id="EdUuXEqN525XKFLtyAf0-40" value="" style="endArrow=none;html=1;rounded=0;strokeColor=#A8201A;fontColor=#143642;fillColor=#FAE5C7;entryX=0.5;entryY=1;entryDx=0;entryDy=0;exitX=0.5;exitY=0;exitDx=0;exitDy=0;fontStyle=1" edge="1" parent="1" source="EdUuXEqN525XKFLtyAf0-37" target="EdUuXEqN525XKFLtyAf0-31">
          <mxGeometry width="50" height="50" relative="1" as="geometry">
            <mxPoint x="590" y="275" as="sourcePoint" />
            <mxPoint x="650" y="226" as="targetPoint" />
          </mxGeometry>
        </mxCell>
        <mxCell id="EdUuXEqN525XKFLtyAf0-41" value="" style="endArrow=none;html=1;rounded=0;strokeColor=#A8201A;fontColor=#143642;fillColor=#FAE5C7;entryX=1;entryY=1;entryDx=0;entryDy=0;exitX=0;exitY=0;exitDx=0;exitDy=0;fontStyle=1" edge="1" parent="1" source="EdUuXEqN525XKFLtyAf0-38" target="EdUuXEqN525XKFLtyAf0-31">
          <mxGeometry width="50" height="50" relative="1" as="geometry">
            <mxPoint x="680" y="310" as="sourcePoint" />
            <mxPoint x="670" y="240" as="targetPoint" />
          </mxGeometry>
        </mxCell>
        <mxCell id="EdUuXEqN525XKFLtyAf0-42" value="ListaStrani" style="whiteSpace=wrap;html=1;align=center;strokeColor=#0F8B8D;fontColor=#143642;fillColor=#FAE5C7;fontStyle=1" vertex="1" parent="1">
          <mxGeometry x="-340" y="205" width="100" height="40" as="geometry" />
        </mxCell>
        <mxCell id="EdUuXEqN525XKFLtyAf0-44" value="d" style="ellipse;whiteSpace=wrap;html=1;aspect=fixed;strokeColor=#0F8B8D;fontColor=#143642;fillColor=#FAE5C7;fontStyle=1" vertex="1" parent="1">
          <mxGeometry x="-130" y="200" width="40" height="40" as="geometry" />
        </mxCell>
        <mxCell id="EdUuXEqN525XKFLtyAf0-45" value="" style="endArrow=none;html=1;rounded=0;strokeColor=#A8201A;fontColor=#143642;fillColor=#FAE5C7;exitX=1;exitY=0.5;exitDx=0;exitDy=0;entryX=0;entryY=0.5;entryDx=0;entryDy=0;fontStyle=1" edge="1" parent="1" source="EdUuXEqN525XKFLtyAf0-42" target="EdUuXEqN525XKFLtyAf0-44">
          <mxGeometry width="50" height="50" relative="1" as="geometry">
            <mxPoint x="110" y="240" as="sourcePoint" />
            <mxPoint x="160" y="190" as="targetPoint" />
          </mxGeometry>
        </mxCell>
        <mxCell id="EdUuXEqN525XKFLtyAf0-46" value="" style="endArrow=none;html=1;rounded=0;strokeColor=#A8201A;fontColor=#143642;fillColor=#FAE5C7;exitX=0.5;exitY=0;exitDx=0;exitDy=0;entryX=0;entryY=0.75;entryDx=0;entryDy=0;fontStyle=1" edge="1" parent="1" source="EdUuXEqN525XKFLtyAf0-44" target="EdUuXEqN525XKFLtyAf0-1">
          <mxGeometry width="50" height="50" relative="1" as="geometry">
            <mxPoint x="-230" y="235" as="sourcePoint" />
            <mxPoint x="-120" y="230" as="targetPoint" />
          </mxGeometry>
        </mxCell>
        <mxCell id="EdUuXEqN525XKFLtyAf0-47" value="" style="endArrow=none;html=1;rounded=0;strokeColor=#A8201A;fontColor=#143642;fillColor=#FAE5C7;exitX=0.5;exitY=1;exitDx=0;exitDy=0;entryX=0;entryY=0.5;entryDx=0;entryDy=0;fontStyle=1" edge="1" parent="1" source="EdUuXEqN525XKFLtyAf0-44" target="EdUuXEqN525XKFLtyAf0-10">
          <mxGeometry width="50" height="50" relative="1" as="geometry">
            <mxPoint x="-100" y="210" as="sourcePoint" />
            <mxPoint x="-10" y="140" as="targetPoint" />
          </mxGeometry>
        </mxCell>
        <mxCell id="EdUuXEqN525XKFLtyAf0-48" value="" style="shape=requiredInterface;html=1;verticalLabelPosition=bottom;sketch=0;strokeColor=#0F8B8D;fontColor=#143642;fillColor=#FAE5C7;rotation=-30;fontStyle=1" vertex="1" parent="1">
          <mxGeometry x="-90" y="160" width="30" height="30" as="geometry" />
        </mxCell>
        <mxCell id="EdUuXEqN525XKFLtyAf0-49" value="" style="shape=requiredInterface;html=1;verticalLabelPosition=bottom;sketch=0;strokeColor=#0F8B8D;fontColor=#143642;fillColor=#FAE5C7;rotation=45;fontStyle=1" vertex="1" parent="1">
          <mxGeometry x="-93.54" y="248.54" width="30" height="40" as="geometry" />
        </mxCell>
        <mxCell id="EdUuXEqN525XKFLtyAf0-50" value="Avtor" style="whiteSpace=wrap;html=1;align=center;strokeColor=#0F8B8D;fontColor=#143642;fillColor=#FAE5C7;fontStyle=1" vertex="1" parent="1">
          <mxGeometry x="-30" y="-160" width="100" height="40" as="geometry" />
        </mxCell>
        <mxCell id="EdUuXEqN525XKFLtyAf0-51" value="napisal" style="shape=rhombus;perimeter=rhombusPerimeter;whiteSpace=wrap;html=1;align=center;strokeColor=#0F8B8D;fontColor=#143642;fillColor=#FAE5C7;fontStyle=1" vertex="1" parent="1">
          <mxGeometry x="-40" y="-50" width="120" height="60" as="geometry" />
        </mxCell>
        <mxCell id="EdUuXEqN525XKFLtyAf0-52" value="ime" style="ellipse;whiteSpace=wrap;html=1;align=center;strokeColor=#0F8B8D;fontColor=#143642;fillColor=#FAE5C7;fontStyle=1" vertex="1" parent="1">
          <mxGeometry x="-140" y="-250" width="100" height="40" as="geometry" />
        </mxCell>
        <mxCell id="EdUuXEqN525XKFLtyAf0-53" value="prezime" style="ellipse;whiteSpace=wrap;html=1;align=center;strokeColor=#0F8B8D;fontColor=#143642;fillColor=#FAE5C7;fontStyle=1" vertex="1" parent="1">
          <mxGeometry y="-260" width="100" height="40" as="geometry" />
        </mxCell>
        <mxCell id="EdUuXEqN525XKFLtyAf0-54" value="birthYear" style="ellipse;whiteSpace=wrap;html=1;align=center;strokeColor=#0F8B8D;fontColor=#143642;fillColor=#FAE5C7;fontStyle=1" vertex="1" parent="1">
          <mxGeometry x="140" y="-240" width="100" height="40" as="geometry" />
        </mxCell>
        <mxCell id="EdUuXEqN525XKFLtyAf0-55" value="" style="endArrow=none;html=1;rounded=0;strokeColor=#A8201A;fontColor=#143642;fillColor=#FAE5C7;exitX=0.5;exitY=1;exitDx=0;exitDy=0;entryX=0;entryY=0;entryDx=0;entryDy=0;fontStyle=1" edge="1" parent="1" source="EdUuXEqN525XKFLtyAf0-52" target="EdUuXEqN525XKFLtyAf0-50">
          <mxGeometry width="50" height="50" relative="1" as="geometry">
            <mxPoint x="110" y="10" as="sourcePoint" />
            <mxPoint x="160" y="-40" as="targetPoint" />
          </mxGeometry>
        </mxCell>
        <mxCell id="EdUuXEqN525XKFLtyAf0-56" value="" style="endArrow=none;html=1;rounded=0;strokeColor=#A8201A;fontColor=#143642;fillColor=#FAE5C7;exitX=0;exitY=1;exitDx=0;exitDy=0;entryX=0.346;entryY=0;entryDx=0;entryDy=0;entryPerimeter=0;fontStyle=1" edge="1" parent="1" source="EdUuXEqN525XKFLtyAf0-53" target="EdUuXEqN525XKFLtyAf0-50">
          <mxGeometry width="50" height="50" relative="1" as="geometry">
            <mxPoint x="-80" y="-200" as="sourcePoint" />
            <mxPoint x="5" y="-146" as="targetPoint" />
          </mxGeometry>
        </mxCell>
        <mxCell id="EdUuXEqN525XKFLtyAf0-57" value="" style="endArrow=none;html=1;rounded=0;strokeColor=#A8201A;fontColor=#143642;fillColor=#FAE5C7;exitX=0;exitY=0.5;exitDx=0;exitDy=0;entryX=0.75;entryY=0;entryDx=0;entryDy=0;fontStyle=1" edge="1" parent="1" source="EdUuXEqN525XKFLtyAf0-54" target="EdUuXEqN525XKFLtyAf0-50">
          <mxGeometry width="50" height="50" relative="1" as="geometry">
            <mxPoint x="25" y="-216" as="sourcePoint" />
            <mxPoint x="60" y="-170" as="targetPoint" />
          </mxGeometry>
        </mxCell>
        <mxCell id="EdUuXEqN525XKFLtyAf0-58" value="" style="endArrow=none;html=1;rounded=0;strokeColor=#A8201A;fontColor=#143642;fillColor=#FAE5C7;exitX=0.5;exitY=1;exitDx=0;exitDy=0;entryX=0.5;entryY=0;entryDx=0;entryDy=0;fontStyle=1;shape=link;" edge="1" parent="1" source="EdUuXEqN525XKFLtyAf0-50" target="EdUuXEqN525XKFLtyAf0-51">
          <mxGeometry width="50" height="50" relative="1" as="geometry">
            <mxPoint x="110" y="-100" as="sourcePoint" />
            <mxPoint x="160" y="-150" as="targetPoint" />
          </mxGeometry>
        </mxCell>
        <mxCell id="EdUuXEqN525XKFLtyAf0-59" value="" style="endArrow=none;html=1;rounded=0;strokeColor=#A8201A;fontColor=#143642;fillColor=#FAE5C7;entryX=0.5;entryY=1;entryDx=0;entryDy=0;shape=link;fontStyle=1" edge="1" parent="1" source="EdUuXEqN525XKFLtyAf0-1" target="EdUuXEqN525XKFLtyAf0-51">
          <mxGeometry width="50" height="50" relative="1" as="geometry">
            <mxPoint x="30" y="-110" as="sourcePoint" />
            <mxPoint x="40" y="-30" as="targetPoint" />
          </mxGeometry>
        </mxCell>
        <mxCell id="EdUuXEqN525XKFLtyAf0-60" value="N" style="text;html=1;align=center;verticalAlign=middle;whiteSpace=wrap;rounded=0;fontColor=#143642;fontStyle=1" vertex="1" parent="1">
          <mxGeometry x="-50" y="-70" width="60" height="30" as="geometry" />
        </mxCell>
        <mxCell id="EdUuXEqN525XKFLtyAf0-61" value="M" style="text;html=1;align=center;verticalAlign=middle;whiteSpace=wrap;rounded=0;fontColor=#143642;fontStyle=1" vertex="1" parent="1">
          <mxGeometry x="-50" y="15" width="60" height="30" as="geometry" />
        </mxCell>
      </root>
    </mxGraphModel>
  </diagram>
</mxfile>
